<svg t="1744289421079" class="icon" viewBox="0 0 1024 1024" version="1.1" xmlns="http://www.w3.org/2000/svg" p-id="14637" width="32" height="32"><path d="M62 643.6c8.5 6 17 11.5 27.5 18.5 2.5-8 4.5-13.5 6.5-19.5 15-46 55.5-75.5 103.5-74.5s88.5 31.5 100 78.5c3.5 14 9 19 23.5 18.5 91.5-0.5 182.5-0.5 274 0 14.5 0 21-4 25-19 12.5-47.5 54-78 102.5-78 49 0 90 31 102 80 4 17 11.5 18.5 24 10.5 31.5-19.5 63-40 94.5-60 6-3.5 11.5-8 17-12v-14c-4-18.5-6.5-37.5-26-48.5-3.5-2-3-13-3-19.5-0.5-11.5 0.5-23.5-1-35-1-10-6.5-20-17.5-17-6 1.5-11.5 11-14.5 18-2.5 6-0.5 13.5-0.5 26-27.5-26.5-57-15-84.5-18.5-11.5-1.5-24-4.5-33.5-11-40-27.5-79.5-56-118-85-12.5-9.5-25-14-40.5-13-16.5 1-33 0-49.5 0l-1.5-6c15.5-9.5 31.5-18.5 47-28 6-3.5 15-5 11-16.5-0.5-2 6.5-7.5 10.5-10 18-11 36-21 54-31.5-7.5-28-11-29.5-34-16-11 6.5-22 13-33.5 19.5-6.5 3.5-13 11.5-21.5 2-1.5-1.5-8.5 2-12 4-18 10-35.5 20-48 27.5-15-5-25.5-8-36-11.5-3-1-8-2-9-4.5-6-16-19.5-14-32-14-30 0.5-59.5 0.5-89.5 0-11 0-18 2-17.5 15 0.5 12-8.5 13-17 12-18.5-2.5-28 6-34 22.5-4 11-11 21-15 31.5-5.5 15-15 22-31.5 22.5-9 0-15 0-20-9.5-2-4.5-10-9-14.5-8.5-38.5 3.5-76.5 8-115 12.5-4.5 0.5-11.5 4.5-12 7-1 16.5-11 21-25 23.5-5.5 1-10 7.5-14.5 11.5-1 74.5-1 147-1 219.5z" p-id="14638" fill="#ffffff"></path><path d="M637.5 682.1c-1 49 35.5 87.5 84.5 89 47.5 1.5 87.5-36 88.5-83 1-52.5-33-88.5-84-89.5s-87.5 33.5-89 83.5zM111 684.6c-0.5 47.5 37.5 86 85.5 86.5 49 0.5 87.5-37 87.5-86 0.5-49-37-87-86-87s-86.5 37.5-87 86.5z" p-id="14639" fill="#ffffff"></path></svg>