<svg t="1744289203283" class="icon" viewBox="0 0 1024 1024" version="1.1" xmlns="http://www.w3.org/2000/svg" p-id="6824" width="32" height="32"><path d="M83.437037 414.340741H265.481481c19.911111 13.274074 39.822222 27.496296 59.733334 40.77037h225.659259l4.740741-145.066667-95.762963-5.688888v22.755555h4.740741v7.585185h-62.577778v-7.585185h6.637037v-25.6l-35.081482-1.896296v-6.637037h182.044445l2.844444-70.162963h16.118519l2.844444 70.162963 0.948148 18.014815 3.792593 144.118518H938.666667v31.288889h-11.377778l1.896296 11.377778c-5.688889 46.459259-20.859259 82.488889-40.77037 114.725926H182.044444c-9.481481-3.792593-17.066667-9.481481-11.377777-26.548148l31.288889-5.688889c12.325926-5.688889 14.222222-18.962963 5.688888-32.237037-30.340741-29.392593-86.281481-71.111111-124.207407-133.688889z m290.133333 93.866666c-3.792593 0-7.585185 3.792593-7.585185 7.585186s3.792593 7.585185 7.585185 7.585185 7.585185-3.792593 7.585186-7.585185-3.792593-7.585185-7.585186-7.585186z m91.022223 0c-3.792593 0-7.585185 3.792593-7.585186 7.585186s3.792593 7.585185 7.585186 7.585185 7.585185-3.792593 7.585185-7.585185-3.792593-7.585185-7.585185-7.585186z m-32.237037 0c-3.792593 0-7.585185 3.792593-7.585186 7.585186s3.792593 7.585185 7.585186 7.585185 7.585185-3.792593 7.585185-7.585185-3.792593-7.585185-7.585185-7.585186z m-29.392593 0c-3.792593 0-7.585185 3.792593-7.585185 7.585186s3.792593 7.585185 7.585185 7.585185 7.585185-3.792593 7.585185-7.585185-3.792593-7.585185-7.585185-7.585186zM749.037037 276.859259v-22.755555h-5.688889v22.755555H730.074074v-40.77037h-5.688889V293.925926h-26.548148v54.992593h18.962963v104.296296h206.696296v-66.370371h-4.74074v-27.496296h-92.918519v27.496296h-4.740741V293.925926h-37.925926v-17.066667H749.037037z m76.8 43.614815v32.237037h92.918519v-32.237037h-92.918519zM753.777778 369.777778v16.118518h26.548148V369.777778h-26.548148z m-28.444445 0h21.807408v16.118518h-21.807408v56.888889h188.681482v-47.407407H811.614815v-92.918519H706.37037v9.481482H730.074074v16.118518h-22.755555v11.377778h18.962962V369.777778h-0.948148z m14.222223-57.837037v16.118518h26.548148v-16.118518H739.555556z m-276.85926 34.133333h-4.74074v50.251852h78.696296v-50.251852h-73.955556z m16.118519 9.481482l-11.377778 11.377777v6.637037l17.066667-18.014814h-5.688889z m-11.377778 5.688888l5.688889-6.637037h-5.688889v6.637037z m21.807407-5.688888l-21.807407 22.755555v6.637037l27.496296-29.392592h-5.688889z m10.42963 0l-29.392593 31.288888h6.637038l29.392592-31.288888h-6.637037z m11.377778 0l-29.392593 31.288888h7.585185l29.392593-31.288888h-7.585185z m12.325926 0l-29.392593 31.288888h7.585185l26.548149-28.444444v-2.844444h-4.740741z m4.740741 7.585185l-21.807408 23.703703h6.637037l15.170371-16.118518v-7.585185z m0 12.325926l-10.42963 11.377777h10.42963v-11.377777z m-150.755556-29.392593h-4.740741v50.251852h78.696297v-50.251852h-73.955556z m15.17037 9.481482l-11.377777 11.377777v6.637037l17.066666-18.014814h-5.688889z m-10.429629 5.688888l5.688889-6.637037h-5.688889v6.637037z m21.807407-5.688888l-21.807407 22.755555v6.637037l27.496296-29.392592h-5.688889z m10.42963 0l-29.392593 31.288888h6.637037l29.392593-31.288888h-6.637037z m11.377778 0l-29.392593 31.288888h7.585185l29.392593-31.288888h-7.585185z m12.325925 0l-29.392592 31.288888h7.585185l26.548148-28.444444v-2.844444h-4.740741z m4.740741 7.585185l-21.807407 23.703703h6.637037l15.17037-16.118518v-7.585185z m0 12.325926l-10.429629 11.377777h10.429629v-11.377777z m19.911111 25.6h-4.74074v50.251852h78.696296v-50.251852h-73.955556z m65.422223 9.481481h-60.681482v31.288889h60.681482v-31.288889z m-151.703704-9.481481h-4.740741v50.251852h78.696296v-50.251852h-73.955555z m65.422222 9.481481h-60.681481v31.288889h60.681481v-31.288889z m-27.496296-83.437037h39.822222V303.407407l-39.822222-1.896296v25.6zM182.044444 438.992593c-6.637037 0-11.377778 4.740741-11.377777 11.377777s4.740741 11.377778 11.377777 11.377778 11.377778-4.740741 11.377778-11.377778-4.740741-11.377778-11.377778-11.377777z" fill="#1296db" p-id="6825"></path></svg>