<svg t="1744289317800" class="icon" viewBox="0 0 1487 1024" version="1.1" xmlns="http://www.w3.org/2000/svg" p-id="8176" width="32" height="32"><path d="M261.570405 521.788102h278.124975V330.92158H311.011592z" fill="#ffffff" p-id="8177"></path><path d="M710.692904 541.487279H187.405697l37.085282-103.783744h451.177912z" fill="#ffffff" p-id="8178"></path><path d="M338.452241 520.294853h278.124975V329.428331H387.893428z" fill="#ffffff" p-id="8179"></path><path d="M1376.769865 921.024367V370.964081h-120.513991l-129.748711 168.497064v207.104874l129.748711 174.458348z" fill="#ffffff" p-id="8180"></path><path d="M412.616949 491.115007l24.723521-106.061681h154.513225v-30.901473H407.03044l-40.762774 142.145607z" fill="#ffffff" fill-opacity="0" p-id="8181"></path><path d="M1056.828058 776.14992H230.938302s-204.329187 13.538792-204.329188-130.16448 204.329187-130.158623 204.329188-130.158623h825.889756s419.146254 5.885158 419.146254 130.158623c0.005856 112.520716-379.437538 130.164479-419.146254 130.16448z" fill="#ffffff" p-id="8182"></path><path d="M26.732088 648.755271c2.681993 140.687494 204.206214 127.394649 204.206214 127.394649h825.889756c39.369075 0 412.804337-17.380249 419.005713-127.394649H26.732088z" fill="#ffffff" p-id="8183"></path><path d="M560.952221 329.428331v-135.973511a24.723521 24.723521 0 0 0-49.447043 0v135.973511a24.71181 24.71181 0 0 0 24.723522 24.717666 24.71181 24.71181 0 0 0 24.723521-24.717666zM486.787513 329.428331V122.382016a24.723521 24.723521 0 0 0-49.452899 0v207.046315a24.723521 24.723521 0 0 0 24.729377 24.717666 24.71181 24.71181 0 0 0 24.723522-24.717666zM26.609114 645.98544c0 83.018797 68.168288 113.510359 125.755003 124.501845 65.041248 0 81.244466-81.174195 81.244466-130.890609 0-73.257047-46.437121-118.177495-80.846266-118.177495-57.668697 10.92707-126.153202 41.371785-126.153203 124.566259z" fill="#ffffff" p-id="8184"></path><path d="M201.68233 590.020804S56.392115 600.778054 56.392115 662.762534c0 0-22.404593-112.78423 120.04552-120.063088l25.244695 47.321358z" fill="#ffffff" fill-opacity="0" p-id="8185"></path><path d="M530.050747 360.329805h61.808803v135.967655H530.050747z" fill="#ffffff" fill-opacity="0" p-id="8186"></path><path d="M787.57474 539.99403H264.287533l37.085282-103.7896h451.177912z" fill="#ffffff" p-id="8187"></path><path d="M1318.064678 434.494513h33.993378v92.399915h-33.993378z" fill="#ffffff" fill-opacity="0" p-id="8188"></path><path d="M392.015966 625.09752h341.983336v23.657751h-341.983336zM801.991914 625.09752h105.060326v23.657751h-105.060326zM380.064117 458.228391h193.244009v30.895618h-193.244009z" fill="#ffffff" fill-opacity="0" p-id="8189"></path></svg>