<svg t="1744277012208" class="icon" viewBox="0 0 1024 1024" version="1.1" xmlns="http://www.w3.org/2000/svg" p-id="11929" width="32" height="32"><path d="M594.488889 379.259259c41.718519 5.688889 82.488889 15.17037 117.57037 26.548148l39.822222-42.666666h96.711112l-44.562963 89.125926c10.42963 8.533333 17.066667 18.014815 20.859259 27.496296h10.42963v8.533333h28.444444v-7.585185h2.844444c-6.637037-20.859259-12.325926-41.718519-5.688888-61.62963l19.911111 8.533334c0.948148 19.911111-2.844444 36.977778-6.637037 53.096296h2.844444v25.6h-3.792593c6.637037 19.911111 10.42963 39.822222 4.740741 59.733333l-19.911111-8.533333c-0.948148-18.962963 1.896296-35.081481 5.688889-50.251852H862.814815v-12.325926h-28.444445v10.42963h-10.429629c-2.844444 8.533333-8.533333 16.118519-16.118519 23.703704l38.874074 78.696296h-94.814815l-29.392592-32.237037c-67.318519 23.703704-156.444444 37.925926-239.881482 37.925926-161.185185 0-237.037037-54.044444-237.037037-121.362963 0-58.785185 57.837037-107.140741 178.251852-118.518519v-57.837037h27.496297v-15.17037H568.888889v15.17037h26.548148V379.259259h-0.948148z m32.237037 132.740741c0 2.844444 2.844444 5.688889 5.688889 5.688889s5.688889-2.844444 5.688889-5.688889-2.844444-5.688889-5.688889-5.688889-5.688889 2.844444-5.688889 5.688889z m-23.703704-14.222222c-1.896296 1.896296-1.896296 5.688889 0 7.585185 1.896296 1.896296 5.688889 1.896296 7.585185 0 1.896296-1.896296 1.896296-5.688889 0-7.585185-1.896296-1.896296-5.688889-1.896296-7.585185 0z m-7.585185-26.548148c-2.844444 0-5.688889 2.844444-5.688889 5.688889s2.844444 5.688889 5.688889 5.688888 5.688889-2.844444 5.688889-5.688888c0-3.792593-2.844444-5.688889-5.688889-5.688889z m14.222222-24.651852c-1.896296-1.896296-5.688889-1.896296-7.585185 0-1.896296 1.896296-1.896296 5.688889 0 7.585185 1.896296 1.896296 5.688889 1.896296 7.585185 0 1.896296-1.896296 1.896296-5.688889 0-7.585185z m26.548148-7.585185c0-2.844444-2.844444-5.688889-5.688888-5.688889s-5.688889 2.844444-5.688889 5.688889 2.844444 5.688889 5.688889 5.688888c3.792593 0 5.688889-2.844444 5.688888-5.688888z m24.651852 14.222222c1.896296-1.896296 1.896296-5.688889 0-7.585185-1.896296-1.896296-5.688889-1.896296-7.585185 0-1.896296 1.896296-1.896296 5.688889 0 7.585185 1.896296 1.896296 5.688889 1.896296 7.585185 0z m7.585185 26.548148c2.844444 0 5.688889-2.844444 5.688889-5.688889s-2.844444-5.688889-5.688889-5.688889-5.688889 2.844444-5.688888 5.688889c0 3.792593 1.896296 5.688889 5.688888 5.688889zM654.222222 504.414815c1.896296 1.896296 5.688889 1.896296 7.585185 0 1.896296-1.896296 1.896296-5.688889 0-7.585185-1.896296-1.896296-5.688889-1.896296-7.585185 0-1.896296 1.896296-1.896296 5.688889 0 7.585185z m-156.444444 7.585185c0 2.844444 2.844444 5.688889 5.688889 5.688889s5.688889-2.844444 5.688889-5.688889-2.844444-5.688889-5.688889-5.688889-5.688889 2.844444-5.688889 5.688889zM474.074074 497.777778c-1.896296 1.896296-1.896296 5.688889 0 7.585185 1.896296 1.896296 5.688889 1.896296 7.585185 0 1.896296-1.896296 1.896296-5.688889 0-7.585185-2.844444-1.896296-5.688889-1.896296-7.585185 0z m-7.585185-26.548148c-2.844444 0-5.688889 2.844444-5.688889 5.688889s2.844444 5.688889 5.688889 5.688888 5.688889-2.844444 5.688889-5.688888c0-3.792593-2.844444-5.688889-5.688889-5.688889z m13.274074-24.651852c-1.896296-1.896296-5.688889-1.896296-7.585185 0-1.896296 1.896296-1.896296 5.688889 0 7.585185 1.896296 1.896296 5.688889 1.896296 7.585185 0 2.844444-1.896296 2.844444-5.688889 0-7.585185z m27.496296-7.585185c0-2.844444-2.844444-5.688889-5.688889-5.688889s-5.688889 2.844444-5.688889 5.688889 2.844444 5.688889 5.688889 5.688888 5.688889-2.844444 5.688889-5.688888z m24.651852 14.222222c1.896296-1.896296 1.896296-5.688889 0-7.585185-1.896296-1.896296-5.688889-1.896296-7.585185 0-1.896296 1.896296-1.896296 5.688889 0 7.585185 1.896296 1.896296 4.740741 1.896296 7.585185 0z m6.637037 26.548148c2.844444 0 5.688889-2.844444 5.688889-5.688889s-2.844444-5.688889-5.688889-5.688889-5.688889 2.844444-5.688889 5.688889c0.948148 3.792593 2.844444 5.688889 5.688889 5.688889z m-13.274074 24.651852c1.896296 1.896296 5.688889 1.896296 7.585185 0 1.896296-1.896296 1.896296-5.688889 0-7.585185-1.896296-1.896296-5.688889-1.896296-7.585185 0-2.844444 1.896296-2.844444 5.688889 0 7.585185z m-159.288889 7.585185c0 2.844444 2.844444 5.688889 5.688889 5.688889s5.688889-2.844444 5.688889-5.688889-2.844444-5.688889-5.688889-5.688889c-3.792593 0-5.688889 2.844444-5.688889 5.688889zM341.333333 497.777778c-1.896296 1.896296-1.896296 5.688889 0 7.585185 1.896296 1.896296 5.688889 1.896296 7.585186 0 1.896296-1.896296 1.896296-5.688889 0-7.585185-1.896296-1.896296-5.688889-1.896296-7.585186 0z m-7.585185-26.548148c-2.844444 0-5.688889 2.844444-5.688889 5.688889s2.844444 5.688889 5.688889 5.688888 5.688889-2.844444 5.688889-5.688888c0-3.792593-1.896296-5.688889-5.688889-5.688889z m14.222222-24.651852c-1.896296-1.896296-5.688889-1.896296-7.585185 0-1.896296 1.896296-1.896296 5.688889 0 7.585185 1.896296 1.896296 5.688889 1.896296 7.585185 0 1.896296-1.896296 1.896296-5.688889 0-7.585185z m27.496297-7.585185c0-2.844444-2.844444-5.688889-5.688889-5.688889s-5.688889 2.844444-5.688889 5.688889 2.844444 5.688889 5.688889 5.688888 5.688889-2.844444 5.688889-5.688888z m23.703703 14.222222c1.896296-1.896296 1.896296-5.688889 0-7.585185-1.896296-1.896296-5.688889-1.896296-7.585185 0-1.896296 1.896296-1.896296 5.688889 0 7.585185 1.896296 1.896296 5.688889 1.896296 7.585185 0z m7.585186 26.548148c2.844444 0 5.688889-2.844444 5.688888-5.688889s-2.844444-5.688889-5.688888-5.688889-5.688889 2.844444-5.688889 5.688889c0 3.792593 2.844444 5.688889 5.688889 5.688889z m-14.222223 24.651852c1.896296 1.896296 5.688889 1.896296 7.585186 0 1.896296-1.896296 1.896296-5.688889 0-7.585185-1.896296-1.896296-5.688889-1.896296-7.585186 0-1.896296 1.896296-1.896296 5.688889 0 7.585185z m238.933334-74.903704c-12.325926 0-23.703704 4.740741-32.237037 13.274074-8.533333 8.533333-13.274074 19.911111-13.274074 32.237037 0 12.325926 4.740741 23.703704 13.274074 32.237037 8.533333 8.533333 19.911111 13.274074 32.237037 13.274074 12.325926 0 23.703704-4.740741 32.237037-13.274074 8.533333-8.533333 13.274074-19.911111 13.274074-32.237037 0-12.325926-4.740741-23.703704-13.274074-32.237037-7.585185-7.585185-18.962963-13.274074-32.237037-13.274074z m-260.740741 0c-12.325926 0-23.703704 4.740741-32.237037 13.274074-8.533333 8.533333-13.274074 19.911111-13.274074 32.237037 0 12.325926 4.740741 23.703704 13.274074 32.237037 8.533333 8.533333 19.911111 13.274074 32.237037 13.274074 12.325926 0 23.703704-4.740741 32.237037-13.274074 8.533333-8.533333 13.274074-19.911111 13.274074-32.237037 0-12.325926-4.740741-23.703704-13.274074-32.237037-8.533333-7.585185-19.911111-13.274074-32.237037-13.274074z m18.962963 26.548148c-4.740741-4.740741-12.325926-8.533333-19.911111-8.533333s-14.222222 2.844444-19.911111 8.533333c-4.740741 4.740741-8.533333 12.325926-8.533334 19.911111s2.844444 14.222222 8.533334 19.911111c4.740741 4.740741 12.325926 8.533333 19.911111 8.533334s14.222222-2.844444 19.911111-8.533334c4.740741-4.740741 8.533333-12.325926 8.533333-19.911111 0-8.533333-3.792593-15.17037-8.533333-19.911111zM502.518519 429.511111c-12.325926 0-23.703704 4.740741-32.237038 13.274074-8.533333 8.533333-13.274074 19.911111-13.274074 32.237037 0 12.325926 4.740741 23.703704 13.274074 32.237037 8.533333 8.533333 19.911111 13.274074 32.237038 13.274074 12.325926 0 23.703704-4.740741 32.237037-13.274074 8.533333-8.533333 13.274074-19.911111 13.274074-32.237037 0-12.325926-4.740741-23.703704-13.274074-32.237037-8.533333-7.585185-19.911111-13.274074-32.237037-13.274074z m19.911111 26.548148c-4.740741-4.740741-12.325926-8.533333-19.911111-8.533333s-14.222222 2.844444-19.911112 8.533333c-4.740741 4.740741-7.585185 12.325926-7.585185 19.911111s2.844444 14.222222 7.585185 19.911111c4.740741 4.740741 12.325926 8.533333 19.911112 8.533334s14.222222-2.844444 19.911111-8.533334c4.740741-4.740741 8.533333-12.325926 8.533333-19.911111-0.948148-8.533333-3.792593-15.17037-8.533333-19.911111z m128.948148 0c-4.740741-4.740741-12.325926-8.533333-19.911111-8.533333s-14.222222 2.844444-19.911111 8.533333c-4.740741 4.740741-8.533333 12.325926-8.533334 19.911111s2.844444 14.222222 8.533334 19.911111c4.740741 4.740741 11.377778 8.533333 19.911111 8.533334 7.585185 0 14.222222-2.844444 19.911111-8.533334 4.740741-4.740741 8.533333-12.325926 8.533333-19.911111-0.948148-8.533333-3.792593-15.17037-8.533333-19.911111z" fill="#000001" p-id="11930"></path></svg>